<svg width="1440" height="940" viewBox="0 0 1440 940" fill="none" xmlns="http://www.w3.org/2000/svg">
<path d="M37.8912 652.748C21.7471 652.634 5.64436 652.325 -10.4032 651.757C-50.8553 723.566 -90.805 792.908 -130.191 859.705C-141.63 879.086 -154.241 891.239 -168.059 896.114C-171.975 897.539 -176.229 898.644 -180.792 899.389C-200.062 902.404 -228.616 899.266 -266.004 888.085C-260.211 873.803 -257.308 857.078 -257.328 838.06C-244.989 841.836 -229.043 846.176 -209.369 850.609C-203.065 851.544 -198.647 850.203 -196.116 846.586C-157.462 782.908 -118.281 716.654 -78.5468 647.899C-98.9787 646.286 -119.302 644.267 -139.545 641.767C-130.345 626.224 -121.087 610.511 -111.827 594.687C-53.0376 600.055 6.52081 601.703 66.712 600.483C57.0847 618.036 47.4633 635.455 37.8958 652.727L37.8912 652.748ZM183.848 873.095C162.87 873.307 141.964 873.286 121.101 872.958C152.843 893.801 174.006 909.706 184.535 920.933C159.671 932.513 134.922 943.553 110.292 954.031C99.7759 939.668 78.8245 920.962 47.4899 897.565C67.3659 889.689 87.3076 881.397 107.354 872.722C73.1178 871.989 39.0304 870.451 5.17138 867.947C15.2748 877.457 25.3783 886.968 35.4863 896.457C-5.95163 913.341 -52.2522 925.058 -103.067 930.08C-107.411 930.646 -111.327 931.01 -114.773 931.18C-117.928 919.896 -124.916 906.035 -135.727 889.554C-94.7339 887.502 -55.7301 879.833 -18.8182 867.135C-17.6047 866.738 -16.6395 866.446 -15.8746 866.248C-29.5798 865.072 -43.2483 863.722 -56.863 862.227C-19.8432 797.636 17.6269 730.929 55.5119 662.164C80.2437 662.141 105.077 661.642 130.006 660.689C131.59 658.339 134.409 654.535 138.515 649.243C142.154 644.237 144.751 640.521 146.34 638.149C114.775 639.723 83.3473 640.648 52.0947 640.753C60.6622 625.21 69.2696 609.585 77.883 593.826C169.112 591.281 261.703 582.228 355.077 569.594C346.037 587.362 336.997 605.018 327.998 622.591C294.195 626.512 260.498 629.935 226.912 632.728C215.467 645.129 207.868 653.042 204.089 656.687C236.429 654.443 268.898 651.594 301.472 648.248C261.847 725.087 222.622 800.048 183.831 873.068L183.848 873.095ZM99.1742 702.027C95.9574 707.914 92.7623 713.805 89.5501 719.671C125.586 719.477 161.803 718.328 198.207 716.406C201.483 710.238 204.743 704.044 208.029 697.833C171.56 700.058 135.279 701.509 99.1788 702.005L99.1742 702.027ZM69.1204 757.011C65.8682 762.958 62.6036 768.858 59.3561 774.783C95.1763 775.605 131.191 775.407 167.397 774.414C170.709 768.186 174.043 761.962 177.359 755.713C141.088 757.008 105.01 757.509 69.1204 757.011ZM38.8381 811.902C35.6581 817.616 32.4996 823.335 29.3289 829.006C64.9377 830.821 100.741 831.617 136.745 831.574C139.985 825.579 143.207 819.558 146.456 813.52C110.388 813.865 74.5205 813.372 38.8427 811.88L38.8381 811.902Z" fill="#77BC1F" fill-opacity="0.3"/>
<path d="M450.969 553.091C468.028 555.274 485.07 557.431 502.133 559.593C464.902 598.531 422.072 634.381 373.823 666.301C366.717 671.044 359.949 675.363 353.516 679.279C345.939 669.041 335.764 660.08 323.026 652.335C322.433 651.938 321.93 651.65 321.516 651.472C358.636 632.066 394.596 606.43 429.424 574.545C437.282 567.116 444.452 559.948 450.969 553.091ZM673.8 752.596C622.88 758.431 571.958 764.378 521.097 769.932C526.303 799.921 552.692 817.48 600.24 822.512C614.864 824.042 631.644 824.562 650.593 824.122C631.081 838.466 610.812 856.894 589.798 879.251C587.967 881.278 586.425 883.005 585.147 884.45C524.56 881.476 485.729 867.21 468.55 842.126C461.779 832.128 457.594 820.06 456.004 805.879C418.484 841.82 367.619 869.796 303.759 888.053C280.903 894.438 255.965 899.995 228.991 904.51C231.304 890.346 229.408 876.01 223.297 861.636C222.63 860.207 221.96 859.003 221.326 858.055C296.194 846.859 352.003 826.641 388.035 800.884C396.493 794.666 404.31 788.064 411.434 781.112C362.804 785.627 314.347 789.434 266.122 792.048C274.705 775.582 283.311 759.009 291.935 742.349C345.632 738.324 399.597 732.934 453.749 726.77C459.067 718.327 465.668 707.04 473.556 692.888C465.905 694.355 454.418 696.021 439.099 697.866C443.348 683.302 444.785 666.039 443.375 646.229C456.271 645.268 474.395 643.184 497.798 639.852C504.534 637.378 508.922 634.585 511.026 631.487C531.702 589.593 552.501 547.228 573.374 504.404C595.491 500.324 617.622 496.179 639.762 491.991C618.43 536.23 597.194 580.015 576.059 623.325C565.413 645.133 553.111 660.717 539.126 670.095C534.213 673.34 528.918 676.256 523.251 678.799C518.29 680.996 514.507 682.54 511.889 683.383C523.713 681.833 535.524 680.235 547.357 678.642C545.973 680.9 538.186 694.26 524.055 718.443C583.029 711.16 642.123 703.315 701.17 695.686C692.036 714.744 682.915 733.737 673.813 752.644L673.8 752.596ZM726.099 595.578C702.307 609.441 678.553 623.131 654.818 636.622C653.071 613.94 641.752 587.528 620.655 558.359C618.395 555.078 616.127 552.044 613.874 549.262C635.476 536.988 657.14 524.524 678.815 511.905C703.737 539.019 719.069 565.246 725.014 589.634C725.516 591.841 725.865 593.812 726.06 595.547L726.099 595.578Z" fill="#77BC1F" fill-opacity="0.3"/>
<path d="M1171.3 535.226C1161.85 556 1152.44 576.692 1143.01 597.337C1130.47 597.899 1117.91 598.547 1105.33 599.304C1076.68 661.925 1048.16 723.942 1019.74 785.349C1008.08 810.554 995.24 827.808 981.193 837.262C978.088 839.334 974.763 841.269 971.267 843.055C953.42 851.476 926.972 856.17 891.785 857.786C897.674 839.551 900.2 819.923 899.323 799.097C912.457 798.819 928.455 798.134 947.311 797.177C953.845 796.286 958.59 792.982 961.528 787.239C971.653 765.434 981.814 743.568 991.972 721.611C971.789 729.016 951.61 736.512 931.405 744.024C941.999 717.892 948.36 686.818 950.422 651.217C950.535 649.84 950.593 648.611 950.58 647.502C970.136 639.964 989.682 632.469 1009.21 625.061C1009.7 653.754 1006.33 680.836 999.223 705.992C1014.95 671.986 1030.73 637.812 1046.53 603.418C1018.64 605.682 990.682 608.339 962.635 611.316C966.568 602.804 970.523 594.296 974.483 585.767C961.07 587.25 947.643 588.797 934.199 590.431C940.245 591.198 946.314 591.969 952.351 592.779C948.148 597.892 934.008 614.259 910.006 641.536C918.725 640.568 927.413 639.639 936.123 638.714C928.129 655.914 920.149 673.05 912.156 690.138C890.653 692.18 869.139 694.379 847.576 696.702C844.53 703.168 841.51 709.616 838.464 716.081C858.759 713.985 879.036 711.975 899.259 710.111C891.351 727.014 883.478 743.856 875.592 760.651C855.394 762.294 835.163 764.088 814.935 765.973C812.303 771.555 809.675 777.116 807.047 782.676C833.83 777.895 860.589 773.222 887.29 768.717C879.011 786.94 870.767 805.104 862.51 823.219C790.486 835.269 717.746 848.137 644.527 860.497C650.823 842.574 657.129 824.608 663.46 806.625C692.225 801.972 720.372 797.255 747.864 792.534C751.202 785.544 754.519 778.549 757.862 771.537C737.303 773.6 716.752 775.733 696.17 777.904C703.909 761.8 711.639 745.628 719.405 729.395C740.042 726.965 760.643 724.595 781.258 722.273C784.281 715.915 787.287 709.532 790.315 703.153C767.899 705.769 745.444 708.468 723.001 711.214C730.82 694.834 738.654 678.39 746.518 661.907C756.094 660.625 765.692 659.346 775.269 658.064C777.823 646.052 778.703 633.209 777.89 619.623C787.335 615.558 796.807 611.475 806.253 607.41C788.856 609.897 771.449 612.427 754.016 614.974C761.943 598.301 769.884 581.564 777.817 564.757C784.944 563.631 792.071 562.505 799.198 561.378C803.854 544.371 805.179 525.933 803.136 506.236C820.12 497.519 837.108 488.78 854.106 479.998C856.099 490.584 856.828 501.172 856.28 511.714C862.519 498.408 868.742 485.076 874.991 471.727C891.088 468.986 907.197 466.293 923.266 463.681C910.058 492.125 896.882 520.417 883.738 548.558C887.631 547.986 891.545 547.419 895.433 546.868C908.591 518.663 921.785 490.284 935.003 461.797C951.345 459.176 967.69 456.646 983.995 454.197C975.483 472.665 966.963 491.064 958.479 509.402C976.468 488.524 991.083 470.135 1002.25 454.376C1017.26 458.203 1032.22 462.219 1047.15 466.434C1040.43 473.088 1030.85 482.883 1018.41 495.728C999.246 515.205 985.924 528.472 978.402 535.702C969.171 532.496 959.925 529.355 950.662 526.301C948.53 530.906 946.373 535.528 944.242 540.133C963.278 537.588 982.286 535.173 1001.26 532.909C998.503 538.87 995.766 544.837 993.012 550.777C1020.29 547.614 1047.47 544.748 1074.6 542.275C1091 506.493 1107.43 470.516 1123.93 434.35C1143.69 432.23 1163.41 430.304 1183.06 428.659C1166.52 465.154 1149.99 501.45 1133.53 537.556C1146.13 536.692 1158.72 535.913 1171.28 535.243L1171.3 535.226ZM842.402 541.392C829.956 547.778 817.515 554.142 805.079 560.484C815.266 558.88 825.469 557.301 835.642 555.762C837.88 550.976 840.139 546.195 842.381 541.388L842.402 541.392ZM884.71 644.421C877.117 643.28 869.536 642.187 861.929 641.111C875.303 624.31 886.901 608.96 896.778 595.118C875.812 597.817 854.846 600.629 833.835 603.544C835.083 619.12 834.096 632.572 830.918 643.796C822.789 647.193 814.677 650.616 806.548 654.013C832.641 650.666 858.707 647.449 884.732 644.425L884.71 644.421Z" fill="#77BC1F" fill-opacity="0.3"/>
<path d="M1269.66 547.293C1249.44 569.392 1229.22 591.421 1209.04 613.368C1201.15 600.761 1184.1 589.931 1157.71 581.721C1156.6 581.439 1155.63 581.098 1154.83 580.746C1173.36 560.481 1191.91 540.152 1210.48 519.736C1239.7 526.018 1259.38 535.532 1269.66 547.293ZM1211.88 630.817C1220.9 642.312 1229.89 654.001 1238.81 665.88C1194.85 722.332 1150.04 777.271 1104.43 830.619C1093.11 819.517 1081.74 808.652 1070.33 798.03C1121.19 742.186 1168.38 686.374 1211.88 630.817ZM1350.41 410.869C1330.26 432.981 1310.09 455.067 1289.96 477.093C1282.78 463.936 1266.29 452.368 1240.28 443.357C1239.45 443 1238.62 442.643 1237.79 442.287C1256.29 422.216 1274.77 402.098 1293.29 381.941C1320.62 388.027 1339.32 397.716 1349.58 410.175C1349.99 410.374 1350.26 410.612 1350.4 410.891L1350.41 410.869ZM1507.01 615.009C1476.76 616.455 1446.32 618.809 1415.71 621.963C1411.71 677.498 1426.31 714.793 1458.97 736.193C1459.36 736.501 1459.69 736.639 1459.94 736.625C1440.87 750.926 1420.25 770.139 1398.08 794.124C1395.65 796.746 1393.45 799.214 1391.43 801.516C1358.51 775.794 1344.57 730.693 1350.12 663.813C1306.26 729.814 1252.23 782.523 1187.63 823.995C1182.33 809.656 1174.03 797.075 1162.7 786.423C1160.96 785.284 1159.53 784.257 1158.44 783.304C1220.99 743.609 1271.38 695.028 1310.01 635.816C1286.45 639.497 1262.79 643.589 1239.07 648.004C1248.58 626.092 1258.09 604.11 1267.63 582.068C1294.39 576.853 1321.04 572.088 1347.6 567.823C1354.89 552.642 1361.64 537.817 1367.86 523.333C1372.63 512.245 1377.39 501.131 1382.17 490.021C1361.51 493.508 1340.79 497.297 1320 501.389C1329.58 479.153 1339.15 456.868 1348.77 434.502C1369.59 430.237 1390.35 426.275 1411.04 422.658C1421.72 397.719 1432.41 372.715 1443.12 347.624C1463.3 343.923 1483.42 340.547 1503.46 337.516C1492.72 362.758 1481.99 387.913 1471.28 413.004C1504.46 408.227 1537.43 404.4 1570.17 401.632C1549.22 450.966 1528.31 500.036 1507.46 548.894C1516.98 548.209 1526.48 547.61 1535.96 547.097C1526.27 569.787 1516.63 592.417 1506.97 614.999L1507.01 615.009ZM1442.36 480.808C1437.51 492.15 1432.66 503.493 1427.81 514.815C1419.51 534.229 1412.92 548.952 1408.12 559.017C1421.91 557.231 1435.67 555.597 1449.38 554.109C1460.55 528.032 1471.71 501.885 1482.91 475.678C1469.44 477.217 1455.91 478.924 1442.37 480.786L1442.36 480.808Z" fill="#77BC1F" fill-opacity="0.3"/>
</svg>
